<?xml version="1.0" standalone="no"?>
<!DOCTYPE svg PUBLIC "-//W3C//DTD SVG 20010904//EN"
 "http://www.w3.org/TR/2001/REC-SVG-20010904/DTD/svg10.dtd">
<svg version="1.0" xmlns="http://www.w3.org/2000/svg"
 width="1278.000000pt" height="1280.000000pt" viewBox="0 0 1278.000000 1280.000000"
 preserveAspectRatio="xMidYMid meet">
<metadata>
Created by potrace 1.15, written by Peter Selinger 2001-2017
</metadata>
<g transform="translate(0.000000,1280.000000) scale(0.100000,-0.100000)"
fill="#0d6efd" stroke="none">
<path d="M5965 12549 c-1293 -91 -2454 -558 -3459 -1391 -55 -45 -96 -77 -92
-70 5 9 -5 12 -36 12 -24 0 -50 6 -57 13 -12 10 -13 8 -7 -8 16 -45 -17 10
-132 216 -158 286 -184 324 -321 459 -114 114 -373 320 -428 341 -15 6 -63 11
-106 11 -191 1 -296 -127 -285 -349 l5 -93 59 -88 c32 -48 60 -100 61 -117 7
-74 38 -138 129 -265 146 -206 282 -356 453 -500 80 -68 106 -114 98 -167 -4
-21 -2 -31 4 -27 6 3 -36 -50 -91 -118 -787 -955 -1233 -2022 -1365 -3263 -24
-222 -31 -696 -14 -945 8 -113 14 -233 14 -267 0 -35 4 -56 8 -50 5 7 7 -9 4
-35 -3 -28 0 -48 5 -48 6 0 7 -21 4 -52 -4 -39 -3 -48 4 -33 8 15 9 10 4 -21
-9 -71 71 -496 151 -799 195 -735 538 -1457 984 -2070 167 -229 436 -553 476
-572 16 -8 -10 -27 -170 -123 -105 -62 -223 -135 -264 -163 -142 -95 -270
-235 -462 -507 l-74 -105 0 -100 c0 -83 4 -107 21 -140 20 -37 62 -83 109
-121 11 -8 14 -12 6 -8 -12 6 -13 -3 -8 -48 10 -99 75 -189 167 -231 68 -31
198 -35 273 -9 167 59 552 399 702 620 192 281 214 304 302 304 69 0 108 -19
251 -125 475 -350 928 -601 1448 -802 489 -189 993 -308 1574 -372 233 -25
921 -25 1155 0 763 83 1407 266 2050 581 338 166 679 375 984 603 182 136 244
157 326 108 47 -27 82 -76 171 -235 114 -205 198 -313 394 -503 228 -223 324
-276 478 -265 87 6 150 37 208 101 98 109 97 249 -4 424 -28 49 -38 59 -43 46
-3 -11 -8 5 -11 37 -4 46 -16 74 -76 173 -210 345 -296 441 -580 644 -122 88
-158 118 -134 111 6 -2 23 16 39 39 15 23 73 92 127 154 582 664 1020 1463
1256 2294 160 566 230 1067 230 1658 0 306 -10 480 -45 757 -75 598 -226 1134
-482 1711 -36 82 -69 147 -73 144 -4 -2 -27 39 -50 93 -177 403 -434 832 -734
1227 -81 106 -90 122 -78 136 63 74 124 124 226 188 65 41 154 101 197 134
152 115 442 441 500 562 72 151 54 307 -47 408 -26 26 -29 27 -35 10 -5 -11
-8 5 -8 38 -1 92 -34 181 -86 232 -57 57 -114 77 -220 77 l-81 0 -145 -97
c-347 -234 -448 -341 -664 -703 -22 -36 -67 -109 -102 -163 -35 -54 -63 -101
-63 -105 0 -5 28 -42 62 -83 l62 -74 -103 95 c-336 310 -563 492 -871 695
-871 576 -1845 901 -2915 975 -161 11 -598 11 -760 -1z m111 -2020 c-14 -112
-30 -274 -38 -359 -18 -209 -18 -1120 0 -1360 28 -371 68 -757 111 -1060 5
-36 6 -68 2 -71 -3 -3 -44 -16 -91 -28 -91 -24 -233 -87 -321 -143 l-55 -35
-50 76 c-79 122 -258 375 -372 526 -481 639 -928 1104 -1467 1525 -101 79
-155 123 -136 113 2 -2 12 10 21 25 24 39 103 104 252 208 373 261 795 469
1213 599 299 93 630 161 833 172 65 3 112 10 112 16 0 6 2 8 5 6 2 -3 -6 -97
-19 -210z m1049 176 c768 -114 1468 -410 2078 -878 l98 -76 -73 -54 c-40 -29
-136 -100 -213 -157 -695 -512 -1268 -1065 -1691 -1630 -98 -130 -289 -409
-296 -432 -3 -7 -18 -2 -40 15 -19 15 -82 52 -139 82 -57 30 -99 55 -94 55 11
0 18 45 65 405 104 811 107 1543 9 2180 -11 72 -26 173 -34 225 -38 242 45
307 330 265z m-3845 -1525 c45 -33 95 -93 203 -245 364 -514 853 -1041 1507
-1626 154 -138 324 -278 332 -273 4 3 -2 -21 -13 -53 -28 -82 -56 -198 -64
-265 -4 -32 -11 -58 -15 -58 -5 0 -79 13 -167 29 -973 182 -1867 223 -2603
120 -96 -13 -377 -57 -410 -64 -15 -3 -20 -2 -13 3 7 4 19 59 28 122 95 730
364 1413 791 2012 125 176 242 301 294 317 44 12 97 5 130 -19z m6593 -84 c18
-7 53 -35 80 -62 90 -92 302 -426 419 -658 211 -419 366 -940 410 -1379 10
-95 14 -114 20 -87 3 19 4 -5 1 -54 -4 -65 -3 -87 6 -82 8 5 11 -26 11 -112
l0 -119 -162 29 c-514 91 -742 125 -1079 157 -669 66 -1264 55 -1855 -34 -185
-27 -206 -29 -186 -17 10 7 10 15 1 38 -6 16 -11 56 -12 89 -1 109 34 151 268
327 301 227 575 470 896 795 297 299 524 554 848 950 132 163 161 191 223 218
42 18 70 19 111 1z m2027 -241 c0 -5 -5 -3 -10 5 -5 8 -10 20 -10 25 0 6 5 3
10 -5 5 -8 10 -19 10 -25z m20 -50 c0 -5 -5 -3 -10 5 -5 8 -10 20 -10 25 0 6
5 3 10 -5 5 -8 10 -19 10 -25z m-1123 -1812 c-3 -10 -5 -4 -5 12 0 17 2 24 5
18 2 -7 2 -21 0 -30z m-8322 -1068 c393 -59 694 -83 1130 -92 425 -8 937 15
1390 62 269 28 348 18 431 -55 l33 -29 -197 -148 c-437 -327 -733 -578 -1066
-903 -375 -367 -716 -782 -961 -1171 -43 -68 -80 -126 -81 -128 -12 -13 -236
240 -365 412 -166 222 -396 595 -384 625 3 7 1 11 -4 8 -11 -7 -23 22 -14 36
3 6 2 8 -4 5 -6 -4 -15 5 -22 19 -7 16 -7 23 -1 19 6 -4 4 10 -5 32 -33 75
-38 90 -92 248 -120 353 -215 815 -194 945 13 81 53 126 122 138 52 10 72 8
284 -23z m5457 -100 c433 -65 855 -90 1423 -82 413 6 558 12 905 43 323 28
371 28 407 5 23 -15 36 -34 49 -74 l17 -54 -42 -169 c-119 -474 -305 -909
-565 -1319 -132 -209 -314 -447 -459 -601 -60 -63 -81 -80 -107 -82 -17 -1
-36 -3 -41 -5 -6 -1 -74 88 -152 198 -394 554 -684 903 -1081 1301 -261 261
-425 407 -683 608 -84 65 -153 120 -153 122 0 2 6 1 13 -2 8 -3 20 9 29 30 18
37 66 78 113 94 50 17 156 13 327 -13z m-7495 -197 c-3 -8 -6 -5 -6 6 -1 11 2
17 5 13 3 -3 4 -12 1 -19z m10 -50 c-3 -8 -6 -5 -6 6 -1 11 2 17 5 13 3 -3 4
-12 1 -19z m5658 -578 c-35 -347 -45 -550 -45 -938 0 -562 41 -1109 125 -1705
29 -204 30 -227 10 -227 -8 0 -15 -5 -15 -12 0 -14 -213 -5 -380 17 -633 83
-1206 279 -1727 591 -184 111 -344 221 -290 201 13 -5 17 -1 17 14 0 27 32 87
67 124 15 17 89 79 163 139 245 196 422 356 706 640 358 359 651 690 974 1101
196 250 239 283 352 271 41 -4 58 -2 58 6 0 6 2 9 4 7 2 -2 -7 -105 -19 -229z
m950 172 c23 -16 100 -107 186 -220 284 -374 468 -583 838 -952 253 -252 501
-479 818 -747 129 -110 149 -139 139 -200 -3 -21 -7 -44 -8 -51 -2 -17 -142
-118 -293 -213 -511 -321 -1040 -523 -1628 -624 -131 -22 -230 -32 -174 -18
15 4 13 8 -14 22 -39 21 -69 73 -69 119 0 18 9 106 20 195 54 448 74 837 67
1272 -7 421 -25 623 -94 1045 -41 252 -40 298 5 351 54 65 132 73 207 21z"/>
<path d="M11860 8955 c0 -5 5 -17 10 -25 5 -8 10 -10 10 -5 0 6 -5 17 -10 25
-5 8 -10 11 -10 5z"/>
</g>
</svg>
